<?xml version="1.0" encoding="UTF-8" standalone="no"?>
<svg width="45px" height="45px" viewBox="0 0 45 45" version="1.1" xmlns="http://www.w3.org/2000/svg" xmlns:xlink="http://www.w3.org/1999/xlink">
    <!-- Generator: Sketch 44.1 (41455) - http://www.bohemiancoding.com/sketch -->
    <title>Group 5</title>
    <desc>Created with Sketch.</desc>
    <defs></defs>
    <g id="otra-propuesta" stroke="none" stroke-width="1" fill="none" fill-rule="evenodd">
        <g id="Artboard" transform="translate(-223.000000, -313.000000)">
            <g id="Group-5" transform="translate(223.000000, 313.000000)">
                <rect id="Rectangle-12" fill="#FFFFFF" x="0" y="0" width="45" height="45" rx="22.5"></rect>
                <g id="Group-4" transform="translate(12.000000, 12.000000)">
                    <circle id="Oval" fill-opacity="0.8" fill="#FFFFFF" cx="11" cy="11" r="7.7"></circle>
                    <circle id="Oval-5" fill="#434A58" cx="11" cy="11" r="3.3"></circle>
                    <path d="M19.9,10 C19.4,5.8 16.1,2.5 12,2.1 L12,0 L10,0 L10,2.1 C5.8,2.5 2.5,5.8 2.1,10 L0,10 L0,12 L2.1,12 C2.6,16.2 5.9,19.5 10,19.9 L10,22 L12,22 L12,19.9 C16.2,19.4 19.5,16.1 19.9,12 L22,12 L22,10 L19.9,10 Z M11,18 C7.1,18 4,14.9 4,11 C4,7.1 7.1,4 11,4 C14.9,4 18,7.1 18,11 C18,14.9 14.9,18 11,18 Z" id="Shape" fill="#434A58" fill-rule="nonzero"></path>
                </g>
            </g>
        </g>
    </g>
</svg>